<svg width="1200" height="630" viewBox="0 0 1200 630" fill="none" xmlns="http://www.w3.org/2000/svg">
  <defs>
    <linearGradient id="bgGrad" x1="0" y1="0" x2="1200" y2="630" gradientUnits="userSpaceOnUse">
      <stop offset="0%" stop-color="#1a6fa8"/>
      <stop offset="50%" stop-color="#2196c4"/>
      <stop offset="100%" stop-color="#1aadad"/>
    </linearGradient>
    <linearGradient id="cardGrad" x1="0" y1="0" x2="0" y2="1" gradientUnits="userSpaceOnUse">
      <stop offset="0%" stop-color="rgba(255,255,255,0.18)"/>
      <stop offset="100%" stop-color="rgba(255,255,255,0.06)"/>
    </linearGradient>
    <radialGradient id="glow1" cx="20%" cy="25%" r="40%">
      <stop offset="0%" stop-color="rgba(174,214,241,0.4)"/>
      <stop offset="100%" stop-color="transparent"/>
    </radialGradient>
    <radialGradient id="glow2" cx="85%" cy="75%" r="35%">
      <stop offset="0%" stop-color="rgba(169,223,191,0.3)"/>
      <stop offset="100%" stop-color="transparent"/>
    </radialGradient>
  </defs>

  <!-- Background -->
  <rect width="1200" height="630" fill="url(#bgGrad)"/>
  <rect width="1200" height="630" fill="url(#glow1)"/>
  <rect width="1200" height="630" fill="url(#glow2)"/>

  <!-- Decorative circles -->
  <circle cx="80" cy="80" r="120" fill="rgba(255,255,255,0.05)"/>
  <circle cx="1150" cy="560" r="160" fill="rgba(255,255,255,0.05)"/>
  <circle cx="1100" cy="100" r="80" fill="rgba(255,255,255,0.04)"/>
  <circle cx="100" cy="560" r="90" fill="rgba(255,255,255,0.04)"/>

  <!-- Card background -->
  <rect x="60" y="60" width="1080" height="510" rx="28" fill="url(#cardGrad)" stroke="rgba(255,255,255,0.2)" stroke-width="1.5"/>

  <!-- Logo mark -->
  <rect x="100" y="110" width="100" height="100" rx="22" fill="rgba(15,23,42,0.7)" stroke="rgba(255,255,255,0.25)" stroke-width="1.5"/>
  <!-- Briefcase -->
  <rect x="118" y="142" width="64" height="42" rx="5" fill="#2563eb" opacity="0.95"/>
  <path d="M136 142v-8a6 6 0 0 1 6-6h16a6 6 0 0 1 6 6v8" stroke="#93c5fd" stroke-width="3" stroke-linecap="round" fill="none"/>
  <line x1="118" y1="162" x2="182" y2="162" stroke="rgba(255,255,255,0.2)" stroke-width="1.5"/>
  <rect x="146" y="157" width="8" height="9" rx="2" fill="rgba(255,255,255,0.3)"/>
  <!-- Arrow up -->
  <path d="M150 138 L150 122 M150 122 L144 129 M150 122 L156 129" stroke="#10b981" stroke-width="3.5" stroke-linecap="round" stroke-linejoin="round"/>
  <circle cx="178" cy="116" r="5" fill="#10b981" opacity="0.9"/>

  <!-- App name Arabic -->
  <text x="220" y="158" font-family="'Segoe UI', Arial, sans-serif" font-size="64" font-weight="800" fill="white" opacity="0.97">كاريير هوب</text>

  <!-- App name English -->
  <text x="220" y="205" font-family="'Segoe UI', Arial, sans-serif" font-size="32" font-weight="600" fill="rgba(255,255,255,0.75)" letter-spacing="3">CareerHope AI</text>

  <!-- Divider line -->
  <line x1="100" y1="240" x2="1100" y2="240" stroke="rgba(255,255,255,0.15)" stroke-width="1"/>

  <!-- Description Arabic -->
  <text x="600" y="305" font-family="'Segoe UI', Arial, sans-serif" font-size="30" font-weight="500" fill="rgba(255,255,255,0.92)" text-anchor="middle">رفيقك الذكي في رحلة العودة المهنية</text>

  <!-- 5 feature pills -->
  <!-- Pill 1 -->
  <rect x="100" y="340" width="190" height="50" rx="25" fill="rgba(255,255,255,0.15)" stroke="rgba(255,255,255,0.25)" stroke-width="1"/>
  <text x="195" y="372" font-family="'Segoe UI', Arial, sans-serif" font-size="18" fill="white" text-anchor="middle">💙 دعم نفسي</text>

  <!-- Pill 2 -->
  <rect x="308" y="340" width="190" height="50" rx="25" fill="rgba(255,255,255,0.15)" stroke="rgba(255,255,255,0.25)" stroke-width="1"/>
  <text x="403" y="372" font-family="'Segoe UI', Arial, sans-serif" font-size="18" fill="white" text-anchor="middle">📄 سيرة ذاتية</text>

  <!-- Pill 3 -->
  <rect x="516" y="340" width="168" height="50" rx="25" fill="rgba(255,255,255,0.15)" stroke="rgba(255,255,255,0.25)" stroke-width="1"/>
  <text x="600" y="372" font-family="'Segoe UI', Arial, sans-serif" font-size="18" fill="white" text-anchor="middle">🎓 دورات مجانية</text>

  <!-- Pill 4 -->
  <rect x="702" y="340" width="168" height="50" rx="25" fill="rgba(255,255,255,0.15)" stroke="rgba(255,255,255,0.25)" stroke-width="1"/>
  <text x="786" y="372" font-family="'Segoe UI', Arial, sans-serif" font-size="18" fill="white" text-anchor="middle">💼 فرص عمل</text>

  <!-- Pill 5 -->
  <rect x="888" y="340" width="212" height="50" rx="25" fill="rgba(255,255,255,0.15)" stroke="rgba(255,255,255,0.25)" stroke-width="1"/>
  <text x="994" y="372" font-family="'Segoe UI', Arial, sans-serif" font-size="18" fill="white" text-anchor="middle">🎬 فيديوهات تحفيزية</text>

  <!-- Language badges -->
  <rect x="100" y="420" width="120" height="36" rx="18" fill="rgba(255,255,255,0.12)" stroke="rgba(255,255,255,0.2)" stroke-width="1"/>
  <text x="160" y="444" font-family="'Segoe UI', Arial, sans-serif" font-size="16" fill="white" text-anchor="middle">🇸🇦 عربي</text>

  <rect x="234" y="420" width="130" height="36" rx="18" fill="rgba(255,255,255,0.12)" stroke="rgba(255,255,255,0.2)" stroke-width="1"/>
  <text x="299" y="444" font-family="'Segoe UI', Arial, sans-serif" font-size="16" fill="white" text-anchor="middle">🇺🇸 English</text>

  <rect x="378" y="420" width="110" height="36" rx="18" fill="rgba(255,255,255,0.12)" stroke="rgba(255,255,255,0.2)" stroke-width="1"/>
  <text x="433" y="444" font-family="'Segoe UI', Arial, sans-serif" font-size="16" fill="white" text-anchor="middle">🇨🇳 中文</text>

  <!-- Free badge -->
  <rect x="510" y="420" width="100" height="36" rx="18" fill="rgba(39,174,96,0.4)" stroke="rgba(39,174,96,0.6)" stroke-width="1.5"/>
  <text x="560" y="444" font-family="'Segoe UI', Arial, sans-serif" font-size="16" font-weight="700" fill="white" text-anchor="middle">✅ مجاني</text>

  <!-- Copyright -->
  <text x="600" y="535" font-family="'Segoe UI', Arial, sans-serif" font-size="15" fill="rgba(255,255,255,0.5)" text-anchor="middle">© 2026 عماد عبدالجواد إبراهيم أحمد — CareerHope AI — جميع الحقوق محفوظة</text>
</svg>
